<svg aria-hidden="true" style="position: absolute; width: 0; height: 0; overflow: hidden;" version="1.1" xmlns="http://www.w3.org/2000/svg" xmlns:xlink="http://www.w3.org/1999/xlink">
	<defs>
		<symbol id="icon-x" viewBox="0 0 32 32">
      <path stroke-linejoin="round" stroke-linecap="round" stroke-miterlimit="4" stroke-width="2.4615" d="M24 8l-16 16"></path>
      <path stroke-linejoin="round" stroke-linecap="round" stroke-miterlimit="4" stroke-width="2.4615" d="M8 8l16 16"></path>
    </symbol>
    <symbol id="icon-plus" viewBox="0 0 32 32">
      <path fill="currentColor" d="M16 3C8.832 3 3 8.832 3 16s5.832 13 13 13s13-5.832 13-13S23.168 3 16 3m0 2c6.087 0 11 4.913 11 11s-4.913 11-11 11S5 22.087 5 16S9.913 5 16 5m-1 5v5h-5v2h5v5h2v-5h5v-2h-5v-5z"/>
    </symbol>
	</defs>
</svg>
